:SAMPLES-PER-SECOND 30
:FULLY-SPECIFIED
:DEGREES
853
root  1.49829 10.9666 -10.1577 -169.923 33.9386 143.485
Spine  15.5666 12.3543 23.0691
Spine1  13.0429 -19.4675 -17.6704
Neck  3.97569e-016 0 -2.38542e-015
Head  59.9934 -11.57 14.9335
R_Clavicle  2.35811 13.4381 8.91864
R_UpperArm  61.8389 24.1009 20.5373
R_Forearm  34.167 24.1996 -21.9492
R_Hand  -4.79728 12.3622 -41.8961
L_Clavicle  -0.645261 1.04088 4.65411
L_UpperArm  -37.4594 66.4029 66.8859
L_Forearm  -19.4258 -9.64408 0.809905
L_Hand  10.3945 -21.6645 -64.2013
L_Thigh  -22.6101 -9.7118 32.1753
L_Calf  -21.5989 1.54538 -11.6526
L_Foot  9.43404 11.9433 20.2202
L_Toe0  0.505156 0.034446 -6.1361
R_Thigh  26.6506 -0.278358 4.24715
R_Calf  19.8399 -16.8509 -69.3441
R_Foot  8.98419 21.193 26.939
R_Toe0  -1.7889 -0.272794 -17.3237
854
root  1.8561 11.5399 -10.4163 -165.63 33.1267 141.215
Spine  18.2104 12.3939 23.2759
Spine1  16.6528 -21.9918 -20.7219
Neck  3.97569e-016 0 -2.38542e-015
Head  59.1102 -14.7027 13.9124
R_Clavicle  1.75593 22.8122 5.43158
R_UpperArm  41.2917 29.3531 -2.29776
R_Forearm  25.4579 22.1002 -19.7421
R_Hand  -2.9396 11.3738 -31.5506
L_Clavicle  -0.519447 -1.18515 3.70654
L_UpperArm  -35.2821 61.8552 63.4638
L_Forearm  -18.2021 -11.0384 -0.452671
L_Hand  12.4325 -26.1869 -60.4847
L_Thigh  -23.0176 -10.8745 31.388
L_Calf  -23.2161 1.26117 -9.52449
L_Foot  10.0123 12.0952 21.7051
L_Toe0  0.505156 0.034446 -6.1361
R_Thigh  29.0477 -3.12863 1.89817
R_Calf  17.0251 -16.6155 -67.1769
R_Foot  9.96676 22.47 28.4744
R_Toe0  -1.907 -0.268486 -17.3929
855
root  2.44808 12.7058 -10.7516 -157.933 33.4576 138.296
Spine  20.7211 13.0858 21.8032
Spine1  19.9738 -24.6283 -22.6609
Neck  3.97569e-016 0 -2.38542e-015
Head  54.2654 -14.8736 13.5171
R_Clavicle  1.94071 24.4193 5.99019
R_UpperArm  21.8313 28.594 -22.7249
R_Forearm  17.807 16.4051 -14.185
R_Hand  -1.59962 8.97014 -23.3708
L_Clavicle  -0.349305 0.452188 2.45581
L_UpperArm  -44.41 52.1755 54.4586
L_Forearm  -5.37525 -10.4289 -4.00011
L_Hand  10.5831 -29.6096 -46.2097
L_Thigh  -22.7987 -12.3424 29.667
L_Calf  -29.0118 0.869194 -6.63006
L_Foot  10.6373 12.5005 22.9775
L_Toe0  0.375334 0.0473664 -6.25965
R_Thigh  33.0609 -3.52115 -1.9116
R_Calf  12.1881 -16.1078 -63.1016
R_Foot  11.0655 23.9717 29.7036
R_Toe0  -0.991009 -0.24263 -16.9453
856
root  3.40609 14.2164 -11.1709 -145.661 35.3094 136.493
Spine  23.6267 15.0199 20.6413
Spine1  23.3101 -28.2552 -24.1115
Neck  3.97569e-016 0 -2.38542e-015
Head  43.3197 -13.5126 14.9281
R_Clavicle  1.07683 20.6533 3.88456
R_UpperArm  9.07487 25.7264 -33.8162
R_Forearm  14.469 4.00324 -3.12447
R_Hand  -1.15879 6.3979 -19.9388
L_Clavicle  -0.249366 4.59189 1.18323
L_UpperArm  -51.6175 35.4866 44.7755
L_Forearm  8.33685 -6.71837 -6.46438
L_Hand  5.60783 -24.6395 -31.0399
L_Thigh  -20.7179 -12.7878 26.4602
L_Calf  -35.3413 0.527608 -4.1232
L_Foot  10.8446 12.7816 23.3319
L_Toe0  1.56795 -0.0634984 -5.12021
R_Thigh  36.1281 -2.02012 -5.63651
R_Calf  3.22127 -15.4566 -58.5662
R_Foot  9.67133 23.2212 22.4297
R_Toe0  5.87768 -1.11838 -11.9864
857
root  4.5849 15.5389 -11.6952 -130.517 36.6496 135.723
Spine  25.4319 15.9313 20.9645
Spine1  25.8802 -32.3713 -24.8617
Neck  3.97569e-016 0 -2.38542e-015
Head  30.3422 -13.063 15.5833
R_Clavicle  -0.0120621 16.3763 0.887528
R_UpperArm  8.36848 27.4352 -38.7535
R_Forearm  9.14169 -18.836 14.0578
R_Hand  -1.33328 4.51688 -21.7102
L_Clavicle  -0.311576 9.25188 0.895583
L_UpperArm  -46.5125 13.9528 35.6293
L_Forearm  11.8264 -4.22367 -4.83794
L_Hand  3.56704 -21.5961 -23.8459
L_Thigh  -18.218 -13.2513 21.8252
L_Calf  -33.7676 0.167531 -1.63025
L_Foot  14.1725 16.2854 27.0128
L_Toe0  6.92005 -0.662336 -0.061569
R_Thigh  35.8205 -1.35207 -7.24674
R_Calf  -7.43134 -14.6375 -53.7397
R_Foot  6.04368 18.7179 5.48837
R_Toe0  12.1209 -2.96049 -5.90221
858
root  5.77356 16.6308 -12.3469 -114.081 37.5384 134.583
Spine  25.3852 16.047 21.6336
Spine1  26.3819 -36.902 -23.2265
Neck  3.97569e-016 0 -2.38542e-015
Head  18.3225 -13.7973 13.8396
R_Clavicle  -0.746585 14.0519 -1.58142
R_UpperArm  31.3605 29.9301 -31.2631
R_Forearm  -3.56739 -33.0789 19.942
R_Hand  -2.08152 10.6148 -23.761
L_Clavicle  -0.378467 12.2623 1.08174
L_UpperArm  -36.1137 -6.78832 24.832
L_Forearm  9.72587 -1.05529 -2.99772
L_Hand  2.9851 -21.3359 -20.5324
L_Thigh  -17.1696 -15.2843 15.8028
L_Calf  -24.2491 -0.568369 3.3144
L_Foot  26.7987 27.2771 41.4499
L_Toe0  9.11262 -1.19379 1.84979
R_Thigh  34.5053 -0.710981 -5.63691
R_Calf  -5.63047 -14.067 -50.8097
R_Foot  3.32906 11.5284 -5.97976
R_Toe0  1.90673 -0.255231 -15.3461
859
root  7.04455 17.5681 -13.1645 -94.4769 39.6802 134.24
Spine  23.0288 17.2892 19.6793
Spine1  22.8067 -39.1352 -17.8425
Neck  3.97569e-016 0 -2.38542e-015
Head  7.71312 -14.0133 11.3568
R_Clavicle  -0.568316 13.6992 -1.05559
R_UpperArm  49.0493 13.9195 -2.90765
R_Forearm  5.06134 2.7101 -5.70336
R_Hand  -3.49578 36.8815 -28.4329
L_Clavicle  -0.388239 13.3739 0.499886
L_UpperArm  -26.576 -22.8861 13.2914
L_Forearm  6.48832 3.11381 -3.61819
L_Hand  2.5188 -19.9823 -18.9136
L_Thigh  -16.3878 -17.1333 12.9162
L_Calf  -12.6408 -0.694774 4.31799
L_Foot  31.5255 30.5475 45.8305
L_Toe0  12.9782 -2.57382 4.47978
R_Thigh  31.0244 -0.763144 -2.66238
R_Calf  2.66295 -14.3877 -52.5231
R_Foot  3.15196 10.3884 -6.65642
R_Toe0  -2.17346 -0.256762 -17.5554
860
root  8.50565 18.369 -14.2597 -70.3583 42.0682 137.702
Spine  16.8596 19.7582 14.1557
Spine1  14.7835 -37.1829 -11.9376
Neck  3.97569e-016 0 -2.38542e-015
Head  1.43736 -10.0847 11.0298
R_Clavicle  -0.288209 10.942 -0.343165
R_UpperArm  49.1381 6.79069 4.75628
R_Forearm  5.55735 9.60832 -10.5902
R_Hand  -21.3684 37.703 -68.8343
L_Clavicle  -0.353104 10.699 1.12991
L_UpperArm  -20.065 -30.6759 6.88425
L_Forearm  2.88339 3.34039 -4.94313
L_Hand  2.81593 -19.5847 -21.8437
L_Thigh  -13.799 -18.5839 11.8517
L_Calf  -8.0018 -0.61574 4.08038
L_Foot  26.9371 27.6184 41.0658
L_Toe0  18.4391 -6.50535 13.7164
R_Thigh  25.3816 0.0360266 -0.0855353
R_Calf  3.21646 -14.9468 -55.6881
R_Foot  3.38511 11.4881 -1.36839
R_Toe0  -1.78853 -0.272776 -17.3235
861
root  10.0761 19.1716 -15.8339 -45.9196 41.6187 143.147
Spine  8.57515 15.6519 6.51123
Spine1  6.01171 -22.602 -6.82308
Neck  3.97569e-016 0 -2.38542e-015
Head  -0.149675 -7.3954 14.07
R_Clavicle  0.255229 7.26283 1.41812
R_UpperArm  43.9973 12.8656 6.3273
R_Forearm  5.76843 5.11548 -9.55263
R_Hand  -24.0125 31.536 -82.5491
L_Clavicle  -0.34508 9.94379 1.25777
L_UpperArm  -18.411 -34.3902 7.23012
L_Forearm  -0.701901 2.22128 -5.40047
L_Hand  3.84245 -20.8803 -27.3205
L_Thigh  -9.53613 -17.7298 9.80667
L_Calf  -5.4077 -0.7913 5.69787
L_Foot  17.8474 18.6747 33.3504
L_Toe0  8.29645 -7.2684 28.4336
R_Thigh  17.8599 1.10814 2.14032
R_Calf  2.17558 -15.3819 -58.3687
R_Foot  3.4942 11.9412 7.99392
R_Toe0  -1.78853 -0.272534 -17.3235
862
root  11.694 19.9977 -17.8099 -25.4588 38.551 146.14
Spine  1.94856 3.33874 5.47044
Spine1  0.746148 0.581794 -8.79418
Neck  3.97569e-016 0 -2.38542e-015
Head  -0.228006 -7.72785 19.4137
R_Clavicle  0.608578 3.04733 3.07959
R_UpperArm  38.4284 20.1283 11.245
R_Forearm  12.8563 5.30473 -13.7261
R_Hand  -27.2708 35.7747 -84.1376
L_Clavicle  -0.341265 12.4826 -0.371217
L_UpperArm  -20.7643 -38.2641 12.2906
L_Forearm  -3.42088 2.76518 -7.35415
L_Hand  4.83404 -23.3899 -29.0967
L_Thigh  -6.11653 -14.1915 7.57799
L_Calf  1.60218 -1.0857 8.11912
L_Foot  9.77943 7.5113 27.4815
L_Toe0  2.19392 -3.80271 33.2575
R_Thigh  8.99936 0.204423 5.53144
R_Calf  5.51608 -15.6691 -60.2847
R_Foot  3.28181 11.4643 13.4113
R_Toe0  -1.78853 -0.272086 -17.3235
863
root  13.3289 20.7662 -19.8852 -7.98917 34.5023 146.899
Spine  -2.74666 -4.85536 6.72287
Spine1  -3.47451 18.1636 -6.55228
Neck  3.97569e-016 0 -2.38542e-015
Head  -2.43948 -7.03914 19.2368
R_Clavicle  0.776556 7.06956 3.48498
R_UpperArm  40.6076 22.223 10.8849
R_Forearm  19.7457 6.98109 -14.9361
R_Hand  -30.3356 40.9977 -83.8964
L_Clavicle  -0.163508 9.32609 -1.66036
L_UpperArm  -29.3607 -40.2276 8.51732
L_Forearm  1.16836 5.17992 -8.13259
L_Hand  1.88497 -24.2281 -11.1
L_Thigh  -5.72066 -9.54019 7.81726
L_Calf  9.44113 -1.23481 9.34717
L_Foot  3.39834 -3.4444 23.3096
L_Toe0  -2.24401 0.234744 29.8799
R_Thigh  -0.513662 -3.31826 10.0579
R_Calf  9.73395 -15.8709 -61.7083
R_Foot  2.1915 9.10285 15.4563
R_Toe0  -1.78853 -0.271579 -17.3236
864
root  14.8372 21.3409 -21.9482 7.35297 29.3084 146.67
Spine  -5.6982 -5.02456 12.3857
Spine1  -7.79893 25.9431 -11.0794
Neck  3.97569e-016 0 -2.38542e-015
Head  -6.51016 -3.65217 18.2392
R_Clavicle  0.506976 9.26814 2.49292
R_UpperArm  44.9991 19.9481 11.1095
R_Forearm  20.7041 7.44038 -12.6503
R_Hand  -31.8649 41.1232 -86.4806
L_Clavicle  0.00169196 5.75897 -1.76196
L_UpperArm  -27.6367 -44.4515 -4.02308
L_Forearm  7.36945 9.42954 -2.15642
L_Hand  -1.45207 -19.6518 11.6472
L_Thigh  -7.91468 -4.62274 10.7385
L_Calf  13.6158 -1.29637 9.83211
L_Foot  -0.885523 -11.3517 19.3819
L_Toe0  -7.50353 3.35086 23.3104
R_Thigh  -10.1482 -8.19699 14.3447
R_Calf  12.3091 -15.8994 -61.9331
R_Foot  0.690814 6.12088 18.0833
R_Toe0  -1.78853 -0.271156 -17.3236
865
root  16.0201 21.6035 -24.0559 20.2925 22.7831 144.852
Spine  -6.55451 -1.09581 17.9004
Spine1  -12.1603 29.5415 -17.7908
Neck  3.97569e-016 0 -2.38542e-015
Head  -10.4589 -0.742245 17.6075
R_Clavicle  -0.172222 7.6565 -0.152548
R_UpperArm  49.5385 18.8832 13.3301
R_Forearm  19.01 7.21546 -9.88592
R_Hand  -31.4565 40.0432 -87.0195
L_Clavicle  0.0255145 3.67823 -1.16574
L_UpperArm  -11.2808 -50.5425 -28.4111
L_Forearm  13.6272 23.032 13.1902
L_Hand  -0.139675 -9.0983 14.6114
L_Thigh  -10.2581 0.796684 14.4087
L_Calf  14.5933 -1.4975 11.2884
L_Foot  -2.50308 -14.3311 16.0582
L_Toe0  -11.5037 3.25413 9.60231
R_Thigh  -17.928 -12.559 16.4168
R_Calf  15.5949 -15.8792 -61.798
R_Foot  0.426777 5.90321 20.5867
R_Toe0  -1.78853 -0.270961 -17.3236
866
root  16.8387 21.6255 -26.1193 31.2429 16.3283 140.948
Spine  -5.52788 2.52234 21.5948
Spine1  -14.8695 33.6177 -21.9193
Neck  3.97569e-016 0 -2.38542e-015
Head  -13.4619 -0.725393 17.1831
R_Clavicle  -0.23976 5.30575 -0.593148
R_UpperArm  53.0642 20.1867 16.5908
R_Forearm  20.1341 7.16452 -8.56131
R_Hand  -31.3453 41.2899 -85.3634
L_Clavicle  -0.113082 1.92521 0.485958
L_UpperArm  18.6621 -50.5764 -61.7396
L_Forearm  24.2861 37.0128 37.0403
L_Hand  0.0879482 3.62727 2.68743
L_Thigh  -11.7198 5.86719 18.2834
L_Calf  15.1601 -1.86995 13.985
L_Foot  -2.46978 -13.3017 11.5656
L_Toe0  -10.1338 1.08297 -1.06307
R_Thigh  -22.4049 -16.5367 14.7345
R_Calf  23.636 -16.0572 -63.0809
R_Foot  1.45872 8.24493 23.8592
R_Toe0  -1.78853 -0.271141 -17.3236
867
root  17.502 21.4956 -27.9994 40.5793 11.2973 136.332
Spine  -3.57767 5.00828 23.2167
Spine1  -15.6901 37.168 -23.296
Neck  3.97569e-016 0 -2.38542e-015
Head  -16.2927 -2.49232 16.7388
R_Clavicle  -0.0524079 5.14987 0.166356
R_UpperArm  56.6351 20.6357 19.5452
R_Forearm  22.4509 6.76536 -6.96354
R_Hand  -30.4661 41.7117 -83.2897
L_Clavicle  -0.457911 -0.486585 3.21633
L_UpperArm  40.2882 -48.9823 -73.1922
L_Forearm  13.2854 28.6106 35.0355
L_Hand  -0.315093 3.36799 -3.77992
L_Thigh  -12.8122 9.11277 22.5989
L_Calf  15.6442 -2.26758 16.8846
L_Foot  -1.92669 -10.113 5.96063
L_Toe0  -2.99903 0.141964 -4.09935
R_Thigh  -25.2762 -21.1185 11.6078
R_Calf  34.5113 -16.2452 -64.4966
R_Foot  2.14912 9.61079 25.5311
R_Toe0  -1.80114 -0.272066 -17.3308
